<?xml version="1.0" encoding="iso-8859-1"?>
<!-- Generator: Adobe Illustrator 19.2.1, SVG Export Plug-In . SVG Version: 6.00 Build 0)  -->
<svg version="1.1" id="Layer_1" xmlns="http://www.w3.org/2000/svg" xmlns:xlink="http://www.w3.org/1999/xlink" x="0px" y="0px"
	 viewBox="0 0 197.449 197.449" style="enable-background:new 0 0 197.449 197.449;" xml:space="preserve">
<polyline style="fill:#777777;" points="60.182,141.011 51.618,44.917 145.831,44.917 137.267,141.011 98.62,151.874 
	60.182,141.011 "/>
<polyline style="fill:#888888;" points="98.829,143.518 129.955,134.953 137.267,52.646 98.829,52.646 98.829,143.518 "/>
<path style="fill:#EBEBEB;" d="M98.829,88.368H83.161l-1.045-12.116h16.712V64.553H98.62H69.165l0.209,3.134l2.925,32.589h26.53
	V88.368 M98.829,119.076H98.62l-13.161-3.551l-0.835-9.401h-6.267h-5.431l1.462,18.592l24.233,6.685h0.209V119.076"/>
<path style="fill:#FFFFFF;" d="M98.62,88.368v11.907h14.623l-1.462,15.25l-13.161,3.551v12.325l24.232-6.685l0.209-2.089
	l2.716-31.126l0.418-3.134h-3.342H98.62 M98.62,64.553v7.312v4.387h28.619l0.209-2.507l0.626-6.058l0.209-3.134H98.62"/>
<path style="fill:#FFFFFF;" d="M98.62,151.874l-38.438-10.863l-8.565-96.094h94.214l-8.565,96.094L98.62,151.874 M98.725,0
	C44.2,0,0,44.2,0,98.725c0,54.524,44.2,98.724,98.725,98.724c54.524,0,98.724-44.2,98.724-98.724C197.449,44.2,153.249,0,98.725,0"
	/>
<path style="fill:#2BB7CE;" d="M98.829,76.252H82.117l1.045,12.116H98.62h0.209V76.252 M137.267,52.646L137.267,52.646
	l-7.311,82.307l-31.126,8.565v-12.116H98.62l-24.233-6.685l-1.462-18.592h5.431h6.267l0.835,9.401l13.161,3.551l0.209-0.056v-18.744
	h-26.53l-2.925-32.589l-0.209-3.134H98.62h0.209V52.646H137.267 M145.831,44.917H51.618l8.565,96.094l38.438,10.863l38.646-10.863
	L145.831,44.917"/>
<path style="fill:#3DC9E0;" d="M113.243,100.275H98.829v18.744l12.952-3.495L113.243,100.275 M137.267,52.646H98.829v11.907h29.455
	l-0.209,3.134l-0.626,6.058l-0.209,2.507h-28.41v12.116h24.023h3.342l-0.418,3.134l-2.716,31.126l-0.209,2.089l-24.023,6.627v0.058
	v12.116l31.126-8.565L137.267,52.646"/>
<path style="fill:#DFF6FA;" d="M84.624,106.124h-6.267h-5.431l1.462,18.592l24.233,6.685h0.209v-0.058l-0.209,0.058v-12.325
	l-13.161-3.551L84.624,106.124 M98.62,64.553L98.62,64.553H69.165l0.209,3.134l2.925,32.589h26.53H98.62V88.368H83.161
	l-1.045-12.116h16.712H98.62v-4.387V64.553"/>
<path style="fill:#FFFFFF;" d="M126.195,88.368h-3.342H98.829H98.62v11.907h0.209h14.414l-1.462,15.25l-12.952,3.495l-0.209,0.056
	v12.325l0.209-0.058l24.023-6.627l0.209-2.089l2.716-31.126L126.195,88.368 M128.284,64.553H98.829H98.62v7.312v4.387h0.209h28.41
	l0.209-2.507l0.626-6.058L128.284,64.553"/>
</svg>
