<?xml version="1.0" encoding="iso-8859-1"?>
<!-- Generator: Adobe Illustrator 19.2.1, SVG Export Plug-In . SVG Version: 6.00 Build 0)  -->
<svg version="1.1" id="Layer_1" xmlns="http://www.w3.org/2000/svg" xmlns:xlink="http://www.w3.org/1999/xlink" x="0px" y="0px"
	 viewBox="0 0 197.449 197.449" style="enable-background:new 0 0 197.449 197.449;" xml:space="preserve">
<polyline style="fill:#777777;" points="74.209,123.817 93.733,123.817 93.733,128.321 74.209,128.321 74.209,132.034 
	135.613,132.034 135.613,128.321 112.85,128.321 112.85,123.817 138.168,123.817 138.168,113.534 74.209,113.534 74.209,123.817 "/>
<polyline style="fill:#777777;" points="57.205,61.939 150.29,61.939 150.29,99.147 158.266,99.147 158.266,53.963 49.229,53.963 
	49.229,78.88 57.205,78.88 57.205,61.939 "/>
<path style="fill:#777777;" d="M30,143.843h41.637v-62.46H30V143.843 M51.697,140.707c-1.107,0-2.007-0.895-2.007-2.004
	c0-1.106,0.9-2.004,2.007-2.004c1.109,0,2.004,0.895,2.004,2.004C53.701,139.812,52.807,140.707,51.697,140.707 M36.021,87.404
	h29.601l-0.003,46.078H36.021V87.404"/>
<path style="fill:#777777;" d="M140.995,101.547v43.971H170v-43.971H140.995 M156.087,103.364c0.347,0,0.631,0.29,0.631,0.633
	c0,0.347-0.284,0.637-0.631,0.637c-0.352,0-0.639-0.29-0.639-0.637C155.447,103.651,155.731,103.364,156.087,103.364
	 M152.32,105.474h7.52v0.608h-7.52V105.474 M155.834,143.619c-0.834,0-1.503-0.677-1.503-1.505c0-0.832,0.668-1.503,1.503-1.503
	c0.828,0,1.505,0.671,1.505,1.503C157.339,142.94,156.663,143.619,155.834,143.619 M165.806,138.442
	c-6.789,0.037-17.248,0.063-20.611,0.035v-30.232l20.611-0.003V138.442"/>
<path style="fill:#FFFFFF;" d="M155.834,140.612c-0.834,0-1.503,0.671-1.503,1.503c0,0.828,0.668,1.505,1.503,1.505
	c0.828,0,1.505-0.68,1.505-1.505C157.339,141.283,156.663,140.612,155.834,140.612 M51.697,136.698
	c-1.107,0-2.007,0.898-2.007,2.004c0,1.11,0.9,2.004,2.007,2.004c1.109,0,2.004-0.895,2.004-2.004
	C53.701,137.593,52.807,136.698,51.697,136.698 M165.806,108.241l-20.611,0.003v30.232c1.002,0.008,2.634,0.012,4.612,0.012
	c4.658,0,11.233-0.02,15.999-0.047V108.241 M159.839,105.474h-7.52v0.608h7.52V105.474 M156.087,103.364
	c-0.355,0-0.639,0.287-0.639,0.633c0,0.347,0.287,0.637,0.639,0.637c0.347,0,0.631-0.29,0.631-0.637
	C156.717,103.654,156.434,103.364,156.087,103.364 M65.622,87.404H36.021v46.078h29.599L65.622,87.404 M74.209,123.817v-10.284
	h63.959v10.284H112.85v4.504h22.764v3.713H74.209v-3.713h19.524v-4.504H74.209 M140.995,145.517v-43.971H170v43.971H140.995
	 M30,143.843v-62.46h41.637v62.46H30 M49.229,78.88V53.963h109.037v45.184h-7.976V61.939H57.205V78.88H49.229 M98.725,0
	C44.2,0,0,44.2,0,98.725c0,54.524,44.2,98.724,98.725,98.724c54.524,0,98.724-44.2,98.724-98.724C197.449,44.2,153.248,0,98.725,0"
	/>
<polyline style="fill:#2BB7CE;" points="138.168,113.534 74.209,113.534 74.209,123.817 93.733,123.817 93.733,128.321 
	74.209,128.321 74.209,132.034 135.613,132.034 135.613,128.321 112.85,128.321 112.85,123.817 138.168,123.817 138.168,113.534 "/>
<polyline style="fill:#2BB7CE;" points="158.266,53.963 49.229,53.963 49.229,78.88 57.205,78.88 57.205,61.939 150.29,61.939 
	150.29,99.147 158.266,99.147 158.266,53.963 "/>
<path style="fill:#2BB7CE;" d="M51.697,140.707c-1.107,0-2.007-0.895-2.007-2.004c0-1.106,0.9-2.004,2.007-2.004
	c1.109,0,2.004,0.895,2.004,2.004C53.701,139.812,52.807,140.707,51.697,140.707 M36.021,133.482V87.404h29.601l-0.003,46.078
	H36.021 M71.637,81.383H30v62.46h41.637V81.383"/>
<path style="fill:#2BB7CE;" d="M155.834,143.619c-0.834,0-1.503-0.677-1.503-1.505c0-0.832,0.668-1.503,1.503-1.503
	c0.828,0,1.505,0.671,1.505,1.503C157.339,142.94,156.663,143.619,155.834,143.619 M149.807,138.488
	c-1.978,0-3.61-0.004-4.612-0.012v-30.232l20.611-0.003v30.201C161.04,138.468,154.465,138.488,149.807,138.488 M152.32,106.082
	v-0.608h7.52v0.608H152.32 M156.087,104.634c-0.352,0-0.639-0.29-0.639-0.637c0-0.347,0.284-0.633,0.639-0.633
	c0.347,0,0.631,0.29,0.631,0.633C156.717,104.345,156.434,104.634,156.087,104.634 M170,101.547h-29.005v43.971H170V101.547"/>
</svg>
