<?xml version="1.0" encoding="iso-8859-1"?>
<!-- Generator: Adobe Illustrator 19.2.1, SVG Export Plug-In . SVG Version: 6.00 Build 0)  -->
<svg version="1.1" id="Layer_1" xmlns="http://www.w3.org/2000/svg" xmlns:xlink="http://www.w3.org/1999/xlink" x="0px" y="0px"
	 viewBox="0 0 197.449 197.449" style="enable-background:new 0 0 197.449 197.449;" xml:space="preserve">
<g>
	<defs>
		<path id="SVGID_1_" d="M98.73,26.874c39.102,0,70.8,31.698,70.8,70.8v0c0,39.102-31.698,70.8-70.8,70.8
			c-39.102,0-70.801-31.698-70.801-70.8v0C27.929,58.572,59.628,26.874,98.73,26.874"/>
	</defs>
	<clipPath id="SVGID_2_">
		<use xlink:href="#SVGID_1_"  style="overflow:visible;"/>
	</clipPath>
	<g style="clip-path:url(#SVGID_2_);">
		<defs>
			<polyline id="SVGID_3_" points="27.929,26.874 169.53,26.874 169.53,168.475 27.929,168.475 27.929,26.874 			"/>
		</defs>
		<clipPath id="SVGID_4_">
			<use xlink:href="#SVGID_3_"  style="overflow:visible;"/>
		</clipPath>
		<path style="clip-path:url(#SVGID_4_);fill:#777777;" d="M51.331,98.015c0,18.896,10.981,35.229,26.908,42.966L55.465,78.585
			C52.816,84.523,51.331,91.094,51.331,98.015"/>
		<path style="clip-path:url(#SVGID_4_);fill:#777777;" d="M131.301,95.607c0-5.902-2.12-9.987-3.936-13.167
			c-2.42-3.934-4.69-7.263-4.69-11.197c0-4.388,3.327-8.473,8.017-8.473c0.212,0,0.412,0.025,0.618,0.038
			c-8.494-7.782-19.81-12.535-32.239-12.535c-16.68,0-31.352,8.559-39.889,21.518c1.121,0.036,2.177,0.058,3.072,0.058
			c4.993,0,12.724-0.607,12.724-0.607c2.572-0.151,2.876,3.63,0.306,3.934c0,0-2.588,0.302-5.464,0.453l17.384,51.714l10.449-31.334
			l-7.438-20.38c-2.572-0.151-5.008-0.453-5.008-0.453c-2.573-0.152-2.271-4.085,0.303-3.934c0,0,7.883,0.607,12.574,0.607
			c4.991,0,12.724-0.607,12.724-0.607c2.574-0.151,2.877,3.63,0.305,3.934c0,0-2.59,0.302-5.463,0.453l17.253,51.32l4.763-15.911
			C129.729,104.434,131.301,99.693,131.301,95.607"/>
		<path style="clip-path:url(#SVGID_4_);fill:#777777;" d="M99.91,102.191l-14.326,41.623c4.278,1.258,8.802,1.945,13.487,1.945
			c5.56,0,10.892-0.96,15.854-2.706c-0.127-0.205-0.245-0.422-0.342-0.658L99.91,102.191"/>
		<path style="clip-path:url(#SVGID_4_);fill:#777777;" d="M140.965,75.111c0.205,1.52,0.321,3.152,0.321,4.909
			c0,4.843-0.907,10.289-3.63,17.1l-14.582,42.16c14.193-8.275,23.738-23.653,23.738-41.266
			C146.813,89.714,144.692,81.911,140.965,75.111"/>
		<path style="clip-path:url(#SVGID_4_);fill:#777777;" d="M99.072,42.364c-30.687,0-55.652,24.965-55.652,55.651
			c0,30.688,24.965,55.653,55.652,55.653c30.687,0,55.653-24.965,55.653-55.653C154.725,67.329,129.759,42.364,99.072,42.364
			 M99.072,151.117c-29.279,0-53.1-23.822-53.1-53.102c0-29.279,23.821-53.099,53.1-53.099c29.279,0,53.1,23.82,53.1,53.099
			C152.172,127.295,128.351,151.117,99.072,151.117"/>
	</g>
</g>
<path style="fill:#FFFFFF;" d="M99.072,145.76c-4.686,0-9.209-0.687-13.487-1.945l14.326-41.623l14.674,40.204
	c0.097,0.236,0.215,0.453,0.342,0.658C109.964,144.8,104.632,145.76,99.072,145.76 M78.239,140.981
	c-15.927-7.737-26.908-24.069-26.908-42.966c0-6.922,1.485-13.493,4.134-19.43L78.239,140.981 M123.074,139.28l14.582-42.16
	c2.723-6.811,3.63-12.257,3.63-17.1c0-1.758-0.116-3.389-0.321-4.909c3.727,6.8,5.847,14.603,5.847,22.903
	C146.813,115.628,137.267,131.005,123.074,139.28 M62.256,71.85c-0.896,0-1.951-0.022-3.072-0.058
	c8.536-12.96,23.209-21.518,39.889-21.518c12.429,0,23.745,4.752,32.239,12.535c-0.206-0.013-0.407-0.038-0.618-0.038
	c-4.69,0-8.017,4.085-8.017,8.473c0,3.934,2.27,7.263,4.69,11.197c1.816,3.18,3.936,7.265,3.936,13.167
	c0,4.086-1.572,8.827-3.633,15.433l-4.763,15.911l-17.253-51.32c2.874-0.151,5.463-0.453,5.463-0.453
	c2.522-0.298,2.28-3.939-0.157-3.939c-0.048,0-0.098,0.001-0.148,0.004c0,0-7.733,0.607-12.724,0.607
	c-4.691,0-12.574-0.607-12.574-0.607c-0.048-0.003-0.096-0.004-0.143-0.004c-2.442,0-2.685,3.789-0.161,3.939
	c0,0,2.435,0.302,5.008,0.453l7.438,20.38l-10.449,31.334L69.821,75.631c2.876-0.151,5.464-0.453,5.464-0.453
	c2.521-0.298,2.278-3.939-0.158-3.939c-0.048,0-0.098,0.001-0.148,0.004C74.98,71.244,67.248,71.85,62.256,71.85 M99.072,44.917
	c-29.279,0-53.1,23.82-53.1,53.099c0,29.279,23.821,53.102,53.1,53.102c29.279,0,53.1-23.822,53.1-53.102
	C152.172,68.736,128.351,44.917,99.072,44.917 M99.072,153.669c-30.687,0-55.652-24.965-55.652-55.653
	c0-30.686,24.965-55.651,55.652-55.651c30.687,0,55.653,24.965,55.653,55.651C154.725,128.704,129.759,153.669,99.072,153.669
	 M98.725,0C44.2,0,0,44.2,0,98.725c0,54.524,44.2,98.724,98.725,98.724c54.524,0,98.724-44.2,98.724-98.724
	C197.449,44.2,153.249,0,98.725,0"/>
<path style="fill:#2BB7CE;" d="M55.465,78.585c-2.649,5.937-4.134,12.508-4.134,19.43c0,18.896,10.981,35.229,26.908,42.966
	L55.465,78.585"/>
<path style="fill:#2BB7CE;" d="M99.072,50.274c-16.68,0-31.352,8.559-39.889,21.518c1.121,0.036,2.177,0.058,3.072,0.058
	c4.993,0,12.724-0.607,12.724-0.607c0.05-0.003,0.1-0.004,0.148-0.004c2.435,0,2.678,3.64,0.158,3.939c0,0-2.588,0.302-5.464,0.453
	l17.384,51.714l10.449-31.334l-7.438-20.38c-2.572-0.151-5.008-0.453-5.008-0.453c-2.524-0.149-2.281-3.939,0.161-3.939
	c0.047,0,0.094,0.001,0.143,0.004c0,0,7.883,0.607,12.574,0.607c4.991,0,12.724-0.607,12.724-0.607
	c0.05-0.003,0.1-0.004,0.148-0.004c2.437,0,2.679,3.64,0.157,3.939c0,0-2.59,0.302-5.463,0.453l17.253,51.32l4.763-15.911
	c2.061-6.606,3.633-11.348,3.633-15.433c0-5.902-2.12-9.987-3.936-13.167c-2.42-3.934-4.69-7.263-4.69-11.197
	c0-4.388,3.327-8.473,8.017-8.473c0.212,0,0.412,0.025,0.618,0.038C122.817,55.026,111.501,50.274,99.072,50.274"/>
<path style="fill:#2BB7CE;" d="M99.91,102.191l-14.326,41.623c4.278,1.258,8.802,1.945,13.487,1.945
	c5.56,0,10.892-0.96,15.854-2.706c-0.127-0.205-0.245-0.422-0.342-0.658L99.91,102.191"/>
<path style="fill:#2BB7CE;" d="M140.965,75.111c0.205,1.52,0.321,3.152,0.321,4.909c0,4.843-0.907,10.289-3.63,17.1l-14.582,42.16
	c14.193-8.275,23.738-23.653,23.738-41.266C146.813,89.714,144.692,81.911,140.965,75.111"/>
<path style="fill:#2BB7CE;" d="M99.072,151.117c-29.279,0-53.1-23.822-53.1-53.102c0-29.279,23.821-53.099,53.1-53.099
	c29.279,0,53.1,23.82,53.1,53.099C152.172,127.295,128.351,151.117,99.072,151.117 M99.072,42.364
	c-30.687,0-55.652,24.965-55.652,55.651c0,30.688,24.965,55.653,55.652,55.653c30.687,0,55.653-24.965,55.653-55.653
	C154.725,67.329,129.759,42.364,99.072,42.364"/>
</svg>
