<?xml version="1.0" encoding="iso-8859-1"?>
<!-- Generator: Adobe Illustrator 19.2.1, SVG Export Plug-In . SVG Version: 6.00 Build 0)  -->
<svg version="1.1" id="Layer_1" xmlns="http://www.w3.org/2000/svg" xmlns:xlink="http://www.w3.org/1999/xlink" x="0px" y="0px"
	 viewBox="0 0 87.333 87.333" style="enable-background:new 0 0 87.333 87.333;" xml:space="preserve">
<g>
	<polygon style="fill:none;" points="78.187,36.815 78.276,36.904 78.315,36.883 	"/>
	<polygon style="fill:none;" points="56.87,25.451 56.87,17.633 52.034,17.633 52.034,22.873 43.667,18.413 9.018,36.883 
		13.3,39.165 13.3,53.41 14.544,53.41 14.544,39.829 37.882,52.27 78.041,36.737 	"/>
	<polygon style="fill:none;" points="13.3,54.331 13.3,53.41 11.918,53.41 11.918,54.753 12.691,54.753 12.691,55.825 
		15.052,55.825 15.052,54.753 15.825,54.753 15.825,53.41 14.544,53.41 14.544,54.331 	"/>
	<polygon style="fill:none;" points="22.096,58.376 35.652,53.132 22.096,45.859 	"/>
	<path style="fill:#FFFFFF;" d="M22.096,45.859l13.556,7.273l2.23-0.863L14.544,39.829V53.41h1.281v1.343h-0.773v1.072h-2.361
		v-1.072h-0.773V53.41H13.3V39.165l-4.282-2.283l34.648-18.47l8.367,4.46v-5.24h4.837v7.819l21.17,11.285l0.049-0.019l0.097,0.097
		l0.128,0.068l-0.039,0.021l9,9c0.037-0.741,0.057-1.487,0.057-2.237C87.333,19.55,67.783,0,43.667,0S0,19.55,0,43.667
		s19.55,43.667,43.667,43.667c2.33,0,4.616-0.187,6.848-0.538L22.096,58.376V45.859z"/>
	<path style="fill:#FFFFFF;" d="M87.276,45.904l-9-9l-34.61,18.45l0,2.079l0,0l21.571-11.499v12.443L43.667,69.7l0,0L22.096,58.376
		l28.419,28.419C70.658,83.621,86.228,66.679,87.276,45.904z"/>
	<polygon style="fill:#2A8BB9;" points="78.09,36.718 78.041,36.737 78.187,36.815 	"/>
	<rect x="13.3" y="53.41" style="fill:#FFFFFF;" width="1.245" height="0.921"/>
</g>
</svg>
