<?xml version="1.0" encoding="iso-8859-1"?>
<!-- Generator: Adobe Illustrator 19.2.1, SVG Export Plug-In . SVG Version: 6.00 Build 0)  -->
<svg version="1.1" id="Layer_1" xmlns="http://www.w3.org/2000/svg" xmlns:xlink="http://www.w3.org/1999/xlink" x="0px" y="0px"
	 viewBox="0 0 167.047 100" style="enable-background:new 0 0 167.047 100;" xml:space="preserve">
<g>
	<path style="fill:#EDA429;" d="M89,0c1.194,1.556,1.125,3.363,1.123,5.195c-0.022,16.979-0.093,33.959,0.056,50.937
		c0.029,3.344-0.7,4.707-4.357,4.61c-4.092-0.109-3.293-2.389-3.265-5.002c0.131-11.926,0.057-23.855-0.477-36.046
		c-1.696,4.38-3.335,8.783-5.123,13.125c-0.538,1.306-0.474,3.547-2.136,3.594c-2.077,0.059-1.909-2.394-2.512-3.795
		c-1.608-3.741-2.984-7.581-5.508-11.173c0,9.335-0.006,18.669,0.005,28.004c0.003,2.163,0.032,4.327,0.108,6.488
		c0.091,2.578,0.409,4.835-3.597,4.826c-3.822-0.009-4.237-1.686-4.226-4.84C59.152,37.283,59.048,18.641,59,0c2,0,4,0,6,0
		c4.242,6.568,5.736,14.416,9.903,21.933C77.591,14.061,81.536,7.513,83,0C85,0,87,0,89,0z"/>
	<path style="fill:#675B48;" d="M130,0c1.046,1.625,0.937,3.443,0.935,5.265c-0.015,16.826-0.048,33.652,0.028,50.477
		c0.013,2.914,0.128,4.975-3.988,4.981c-4.389,0.006-3.743-2.544-3.74-5.177c0.014-11.877,0.006-23.754,0.006-36.939
		c-2.651,6.797-4.884,12.525-7.118,18.252c-0.462,0.004-0.923,0.008-1.385,0.012c-2.207-5.647-4.413-11.295-6.62-16.942
		c-0.313,0.01-0.627,0.021-0.94,0.031c0,3.441-0.038,6.883,0.007,10.324c0.114,8.657,0.171,17.317,0.452,25.969
		c0.099,3.065-0.491,4.488-4.045,4.45c-3.377-0.036-3.696-1.45-3.68-4.229C100.023,37.649,99.988,18.825,100,0c2,0,4,0,6,0
		c3.088,7.122,6.177,14.244,9.589,22.114C118.487,14.119,122.052,7.376,124,0C126,0,128,0,130,0z"/>
	<path style="fill:#6467A1;" d="M155,0c3.381,10.831,4.437,22.14,6.779,33.187c1.657,7.812,2.904,15.712,4.301,23.578
		c0.32,1.803,0.893,3.894-2.131,3.819c-2.181-0.054-4.943,0.853-5.123-2.906c-0.063-1.317-0.707-2.626-0.669-3.926
		c0.155-5.343-2.209-7.155-7.559-6.728c-3.249,0.26-4.848,0.919-5.099,4.31c-0.183,2.473-0.767,4.94-1.402,7.348
		c-0.834,3.159-3.522,1.708-5.45,1.848c-1.858,0.135-2.053-1.242-1.768-2.744C140.538,38.514,143.605,19.129,148,0
		C150.333,0,152.667,0,155,0z"/>
	<path style="fill:#1A887D;" d="M16,0c0.972,1.644,0.871,3.454,0.869,5.267c-0.014,18.401,0.029,36.801-0.047,55.202
		c-0.012,2.961-0.22,5.991-0.875,8.867C14.133,77.295,7.647,80.315,0,77c0-2,0-4,0-6c8.572,0.006,8.926-0.344,8.936-9.005
		C8.961,41.33,8.979,20.665,9,0C11.333,0,13.667,0,16,0z"/>
	<path style="fill:#655945;" d="M137,100c-7.785-7.368-10.123-19.929-5.588-30.011c1.367-3.04,3.268-5.519,6.94-5.566
		c3.666-0.048,5.783,2.277,7.038,5.389c3.115,7.724,2.913,15.536,0.351,23.372c-1.115,3.411-4.215,4.82-6.741,6.816
		C138.333,100,137.667,100,137,100z"/>
	<path style="fill:#E56943;" d="M86,100c-0.027-10.475,0.057-20.953-0.148-31.425c-0.061-3.101,0.908-4.017,3.951-3.912
		c7.188,0.248,11.66,7.289,8.107,13.793c-1.484,2.716-1.253,4.391-0.038,7.008c2.013,4.337,3.32,9.02,3.222,13.934
		c-3.471,0.372-4.748-1.237-5.41-4.649c-0.702-3.615-0.717-7.83-5.044-11.124c0,3.595,0.081,6.327-0.024,9.053
		C90.519,95.198,91.457,97.987,89,100C88,100,87,100,86,100z"/>
	<path style="fill:#EDA429;" d="M152,100c-0.075-10.659-0.167-21.318-0.201-31.977c-0.004-1.219-0.481-2.829,1.481-3.188
		c1.891-0.346,2.647,0.797,3.201,2.363c1.875,5.297,3.812,10.572,6.645,15.802c0-4.98,0.136-9.965-0.049-14.939
		c-0.118-3.172,1.311-3.76,3.957-3.087c-0.003,9.97-0.029,19.941,0.007,29.911c0.008,2.255,0.219,4.502-3.11,4.236
		c-2.413-6.144-4.827-12.287-7.55-19.219C155.129,87.244,157.3,93.756,155,100C154,100,153,100,152,100z"/>
	<path style="fill:#685D4A;" d="M46,100c1.994-11.095,4.007-22.187,5.96-33.29c0.276-1.57,0.987-2.334,2.601-2.369
		c1.455-0.032,2.79,0.195,3.037,1.851c1.658,11.118,4.904,21.973,5.493,33.265c-3.106,0.36-4.45-1.098-4.493-4.146
		c-0.036-2.505-1.166-3.642-3.96-3.586c-2.709,0.054-3.44,1.416-3.527,3.584C51.034,97.2,50.304,98.707,49,100C48,100,47,100,46,100
		z"/>
	<path style="fill:#696CA4;" d="M115,100c-0.606-2.246-3.965-5.531,2.357-4.774c3.342,0.4,4.205-2.274,3.005-5.127
		c-1.543-3.667-3.418-7.192-5.051-10.823c-1.445-3.214-2.6-6.519-1.397-10.109c1.282-3.826,5.333-6.049,8.605-4.837
		c1.475,0.546,2.095,1.483,1.967,3.026c-0.15,1.809-1.169,1.364-2.444,1.252c-4.396-0.385-4.685,2.468-3.524,5.457
		c1.498,3.858,3.683,7.443,5.324,11.252c2.773,6.435,2.025,9.88-2.842,14.683C119,100,117,100,115,100z"/>
	<path style="fill:#118379;" d="M105,100c-0.088-10.817-0.18-21.633-0.258-32.45c-0.01-1.339-0.103-2.738,1.892-2.802
		c1.548-0.05,2.554,0.314,2.548,2.139c-0.038,10.322-0.015,20.644-0.099,30.965c-0.006,0.719-0.706,1.432-1.083,2.148
		C107,100,106,100,105,100z"/>
	<path style="fill:#E56640;" d="M26.968,31.006c0-8.818,0.094-17.637-0.055-26.452c-0.047-2.759,0.685-3.853,3.602-3.717
		c4.648,0.217,9.32,0.192,13.971,0.006c2.755-0.11,3.784,0.691,3.766,3.602c-0.018,2.851-0.948,3.616-3.74,3.669
		c-9.612,0.181-9.609,0.294-9.61,10.068c0,0.665,0.096,1.348-0.016,1.994c-0.788,4.572,1.036,6.209,5.655,5.762
		c2.076-0.201,4.87-1.361,6.413,1.036c1.872,2.909-0.253,5.953-3.946,6.027c-8.106,0.164-8.106,0.164-8.106,8.124
		c0,0.166-0.009,0.333,0.001,0.499c0.236,3.615-1.465,8.12,0.728,10.61c2.085,2.368,6.609,0.819,10.029,0.735
		c3.105-0.076,3.463,1.31,3.498,3.881c0.036,2.703-0.626,3.932-3.595,3.812c-4.983-0.201-9.985-0.185-14.97-0.005
		c-2.826,0.102-3.734-0.863-3.682-3.699C27.068,48.311,26.967,39.658,26.968,31.006z"/>
	<path style="fill:#EDA326;" d="M71.078,99.157c-1.325-0.091-2.649-0.183-3.974-0.274c-0.04-10.131,0.047-20.264-0.193-30.39
		c-0.077-3.236,1.127-3.907,4.039-3.801c7.364,0.267,11.618,7.641,7.796,14.31c-1.235,2.154-1.271,3.388-0.198,5.618
		c2.216,4.606,3.712,9.549,3.508,14.808c-3.15,0.226-4.611-1.102-5.229-4.36c-0.706-3.721-0.854-7.862-4.468-11.133
		C70.784,89.233,72.821,94.39,71.078,99.157z"/>
	<path style="fill:#6467A1;" d="M42.054,99.053c-1.261-0.073-2.521-0.147-3.782-0.22c-0.063-3.78-0.263-7.564-0.142-11.338
		c0.082-2.559-0.773-3.467-3.382-3.427c-2.466,0.038-2.985,1.081-3.07,3.286c-0.15,3.901,0.792,7.87-0.621,11.702
		c-1.3-0.055-2.6-0.111-3.899-0.167c-0.062-10.31-0.138-20.621-0.172-30.931c-0.005-1.409-0.412-3.097,1.986-3.204
		c2.32-0.104,2.814,1.1,2.767,3.067c-0.067,2.827,0.083,5.661-0.045,8.483c-0.111,2.445,0.574,3.584,3.321,3.604
		c2.973,0.021,3.162-1.536,3.096-3.775c-0.089-2.992,0.021-5.989-0.025-8.983c-0.026-1.665,0.666-2.443,2.355-2.391
		c1.367,0.042,2.277,0.566,2.237,2.033C42.378,77.545,43.524,88.325,42.054,99.053z"/>
</g>
</svg>
