<?xml version="1.0" encoding="utf-8"?>
<!-- Generator: Adobe Illustrator 19.2.1, SVG Export Plug-In . SVG Version: 6.00 Build 0)  -->
<svg version="1.1" id="Layer_1" xmlns="http://www.w3.org/2000/svg" xmlns:xlink="http://www.w3.org/1999/xlink" x="0px" y="0px"
	 viewBox="0 0 167 100" style="enable-background:new 0 0 167 100;" xml:space="preserve">
<style type="text/css">
	.st0{fill:#FFFFFF;}
</style>
<g>
	<path class="st0" d="M89,0c1.2,1.6,1.1,3.4,1.1,5.2c0,17-0.1,34,0.1,50.9c0,3.3-0.7,4.7-4.4,4.6c-4.1-0.1-3.3-2.4-3.3-5
		c0.1-11.9,0.1-23.9-0.5-36c-1.7,4.4-3.3,8.8-5.1,13.1c-0.5,1.3-0.5,3.5-2.1,3.6c-2.1,0.1-1.9-2.4-2.5-3.8c-1.6-3.7-3-7.6-5.5-11.2
		c0,9.3,0,18.7,0,28c0,2.2,0,4.3,0.1,6.5c0.1,2.6,0.4,4.8-3.6,4.8c-3.8,0-4.2-1.7-4.2-4.8C59.2,37.3,59,18.6,59,0c2,0,4,0,6,0
		c4.2,6.6,5.7,14.4,9.9,21.9C77.6,14.1,81.5,7.5,83,0C85,0,87,0,89,0z"/>
	<path class="st0" d="M130,0c1,1.6,0.9,3.4,0.9,5.3c0,16.8,0,33.7,0,50.5c0,2.9,0.1,5-4,5c-4.4,0-3.7-2.5-3.7-5.2
		c0-11.9,0-23.8,0-36.9c-2.7,6.8-4.9,12.5-7.1,18.3c-0.5,0-0.9,0-1.4,0c-2.2-5.6-4.4-11.3-6.6-16.9c-0.3,0-0.6,0-0.9,0
		c0,3.4,0,6.9,0,10.3c0.1,8.7,0.2,17.3,0.5,26c0.1,3.1-0.5,4.5-4,4.5c-3.4,0-3.7-1.5-3.7-4.2C100,37.6,100,18.8,100,0c2,0,4,0,6,0
		c3.1,7.1,6.2,14.2,9.6,22.1c2.9-8,6.5-14.7,8.4-22.1C126,0,128,0,130,0z"/>
	<path class="st0" d="M155,0c3.4,10.8,4.4,22.1,6.8,33.2c1.7,7.8,2.9,15.7,4.3,23.6c0.3,1.8,0.9,3.9-2.1,3.8
		c-2.2-0.1-4.9,0.9-5.1-2.9c-0.1-1.3-0.7-2.6-0.7-3.9c0.2-5.3-2.2-7.2-7.6-6.7c-3.2,0.3-4.8,0.9-5.1,4.3c-0.2,2.5-0.8,4.9-1.4,7.3
		c-0.8,3.2-3.5,1.7-5.4,1.8c-1.9,0.1-2.1-1.2-1.8-2.7c3.7-19.3,6.7-38.7,11.1-57.8C150.3,0,152.7,0,155,0z"/>
	<path class="st0" d="M16,0c1,1.6,0.9,3.5,0.9,5.3c0,18.4,0,36.8,0,55.2c0,3-0.2,6-0.9,8.9c-1.8,8-8.3,11-15.9,7.7c0-2,0-4,0-6
		c8.6,0,8.9-0.3,8.9-9C9,41.3,9,20.7,9,0C11.3,0,13.7,0,16,0z"/>
	<path class="st0" d="M137,100c-7.8-7.4-10.1-19.9-5.6-30c1.4-3,3.3-5.5,6.9-5.6c3.7,0,5.8,2.3,7,5.4c3.1,7.7,2.9,15.5,0.4,23.4
		c-1.1,3.4-4.2,4.8-6.7,6.8C138.3,100,137.7,100,137,100z"/>
	<path class="st0" d="M86,100c0-10.5,0.1-21-0.1-31.4c-0.1-3.1,0.9-4,4-3.9c7.2,0.2,11.7,7.3,8.1,13.8c-1.5,2.7-1.3,4.4,0,7
		c2,4.3,3.3,9,3.2,13.9c-3.5,0.4-4.7-1.2-5.4-4.6c-0.7-3.6-0.7-7.8-5-11.1c0,3.6,0.1,6.3,0,9.1c-0.1,2.5,0.8,5.3-1.6,7.3
		C88,100,87,100,86,100z"/>
	<path class="st0" d="M152,100c-0.1-10.7-0.2-21.3-0.2-32c0-1.2-0.5-2.8,1.5-3.2c1.9-0.3,2.6,0.8,3.2,2.4c1.9,5.3,3.8,10.6,6.6,15.8
		c0-5,0.1-10,0-14.9c-0.1-3.2,1.3-3.8,4-3.1c0,10,0,19.9,0,29.9c0,2.3,0.2,4.5-3.1,4.2c-2.4-6.1-4.8-12.3-7.6-19.2
		c-1.3,7.3,0.9,13.9-1.4,20.1C154,100,153,100,152,100z"/>
	<path class="st0" d="M46,100c2-11.1,4-22.2,6-33.3c0.3-1.6,1-2.3,2.6-2.4c1.5,0,2.8,0.2,3,1.9c1.7,11.1,4.9,22,5.5,33.3
		c-3.1,0.4-4.5-1.1-4.5-4.1c0-2.5-1.2-3.6-4-3.6c-2.7,0.1-3.4,1.4-3.5,3.6c-0.1,1.9-0.8,3.4-2.1,4.7C48,100,47,100,46,100z"/>
	<path class="st0" d="M115,100c-0.6-2.2-4-5.5,2.4-4.8c3.3,0.4,4.2-2.3,3-5.1c-1.5-3.7-3.4-7.2-5.1-10.8c-1.4-3.2-2.6-6.5-1.4-10.1
		c1.3-3.8,5.3-6,8.6-4.8c1.5,0.5,2.1,1.5,2,3c-0.2,1.8-1.2,1.4-2.4,1.3c-4.4-0.4-4.7,2.5-3.5,5.5c1.5,3.9,3.7,7.4,5.3,11.3
		c2.8,6.4,2,9.9-2.8,14.7C119,100,117,100,115,100z"/>
	<path class="st0" d="M105,100c-0.1-10.8-0.2-21.6-0.3-32.4c0-1.3-0.1-2.7,1.9-2.8c1.5-0.1,2.6,0.3,2.5,2.1c0,10.3,0,20.6-0.1,31
		c0,0.7-0.7,1.4-1.1,2.1C107,100,106,100,105,100z"/>
	<path class="st0" d="M27,31c0-8.8,0.1-17.6-0.1-26.5c0-2.8,0.7-3.9,3.6-3.7c4.6,0.2,9.3,0.2,14,0c2.8-0.1,3.8,0.7,3.8,3.6
		c0,2.9-0.9,3.6-3.7,3.7c-9.6,0.2-9.6,0.3-9.6,10.1c0,0.7,0.1,1.3,0,2c-0.8,4.6,1,6.2,5.7,5.8c2.1-0.2,4.9-1.4,6.4,1
		c1.9,2.9-0.3,6-3.9,6c-8.1,0.2-8.1,0.2-8.1,8.1c0,0.2,0,0.3,0,0.5c0.2,3.6-1.5,8.1,0.7,10.6c2.1,2.4,6.6,0.8,10,0.7
		c3.1-0.1,3.5,1.3,3.5,3.9c0,2.7-0.6,3.9-3.6,3.8c-5-0.2-10-0.2-15,0c-2.8,0.1-3.7-0.9-3.7-3.7C27.1,48.3,27,39.7,27,31z"/>
	<path class="st0" d="M71.1,99.2c-1.3-0.1-2.6-0.2-4-0.3c0-10.1,0-20.3-0.2-30.4c-0.1-3.2,1.1-3.9,4-3.8c7.4,0.3,11.6,7.6,7.8,14.3
		c-1.2,2.2-1.3,3.4-0.2,5.6c2.2,4.6,3.7,9.5,3.5,14.8c-3.2,0.2-4.6-1.1-5.2-4.4c-0.7-3.7-0.9-7.9-4.5-11.1
		C70.8,89.2,72.8,94.4,71.1,99.2z"/>
	<path class="st0" d="M42.1,99.1c-1.3-0.1-2.5-0.1-3.8-0.2c-0.1-3.8-0.3-7.6-0.1-11.3c0.1-2.6-0.8-3.5-3.4-3.4c-2.5,0-3,1.1-3.1,3.3
		c-0.1,3.9,0.8,7.9-0.6,11.7c-1.3-0.1-2.6-0.1-3.9-0.2C27.1,88.6,27,78.3,27,68c0-1.4-0.4-3.1,2-3.2c2.3-0.1,2.8,1.1,2.8,3.1
		c-0.1,2.8,0.1,5.7,0,8.5c-0.1,2.4,0.6,3.6,3.3,3.6c3,0,3.2-1.5,3.1-3.8c-0.1-3,0-6,0-9c0-1.7,0.7-2.4,2.4-2.4c1.4,0,2.3,0.6,2.2,2
		C42.4,77.5,43.5,88.3,42.1,99.1z"/>
</g>
</svg>
