<svg id="Layer_1" data-name="Layer 1" xmlns="http://www.w3.org/2000/svg" xmlns:xlink="http://www.w3.org/1999/xlink" viewBox="0 0 146.94 147.94"><defs><style>.cls-1{fill:none;}.cls-2{clip-path:url(#clip-path);}.cls-3{fill:#fff;}</style><clipPath id="clip-path"><circle class="cls-1" cx="73.47" cy="74.47" r="73.47"/></clipPath></defs><title>logos</title><g class="cls-2"><circle class="cls-3" cx="73.47" cy="74.47" r="73.47"/><path d="M70.47,134.45A4.25,4.25,0,0,1,67,127.8c0.2-.3,11.2-24.64,5-59.5a5.1,5.1,0,0,1,2.26-5.23,4.74,4.74,0,0,1,5.44,1.72C83,70.51,89.9,79.71,95.36,82.45,98.15,80.17,104.07,74,105.8,62a4.73,4.73,0,0,1,4.56-3.63c1.53,0.14,4.12,2.1,3.9,4.34-4,40.52,9.79,54.88,9.83,55,0.73,2.23-1.06,5.07-3.29,5.8s-5.2-.29-5.93-2.52a89.72,89.72,0,0,1-7.65-42.77,74.19,74.19,0,0,1-9.14,12.69,3.16,3.16,0,0,1-3.13.43c-3.82-1-10.78-7.8-14.13-11.09,1.54,34-5.64,50.69-6.85,52.36A4.36,4.36,0,0,1,70.47,134.45Z"/><path d="M93.82,27.85c-2.53-2.26-7.66-3.56-9-1.66C51.26,63.75,8.37,68.8,7.68,68.86a4.25,4.25,0,0,0,.4,8.48l0.41,0C9.82,77.2,27.64,78,51.9,65.66c1.49,8.89,3.71,32.48-11.56,76.1a4.25,4.25,0,1,0,8,2.81c17.73-50.64,13-76.41,11.36-83.21,10.93-6.45,24.2-13,34.43-24.5C97.46,33.87,96,30.38,93.82,27.85Z"/><circle class="cls-1" cx="73.47" cy="73.47" r="73.47"/></g></svg>