<svg id="Layer_1" data-name="Layer 1" xmlns="http://www.w3.org/2000/svg" viewBox="0 0 146.94 146.94"><defs><style>.cls-1{fill:#fff;}</style></defs><title>logos</title><path class="cls-1" d="M73.47,0A73.47,73.47,0,0,0,41.13,139.44C55.52,97.32,53.37,74.38,51.9,65.66,27.64,78,9.82,77.2,8.49,77.33l-0.41,0a4.25,4.25,0,0,1-.4-8.48c0.69-.07,43.58-5.11,77.14-42.68,1.34-1.9,6.48-.59,9,1.66,2.15,2.53,3.64,6,.34,9-10.23,11.45-23.5,18.05-34.43,24.5,1.58,6.72,6.24,32-10.74,81.39A73.47,73.47,0,1,0,73.47,0ZM120.8,123.51c-2.23.73-5.2-.29-5.93-2.52a89.72,89.72,0,0,1-7.65-42.77,74.2,74.2,0,0,1-9.14,12.69,3.17,3.17,0,0,1-3.13.43c-3.82-1-10.78-7.8-14.13-11.09,1.54,34-5.64,50.69-6.85,52.36a4.36,4.36,0,0,1-3.51,1.85A4.25,4.25,0,0,1,67,127.8c0.2-.3,11.2-24.64,5-59.5a5.1,5.1,0,0,1,2.26-5.23,4.74,4.74,0,0,1,5.44,1.72C83,70.51,89.9,79.71,95.36,82.45,98.15,80.17,104.07,74,105.8,62a4.73,4.73,0,0,1,4.56-3.63c1.53,0.14,4.12,2.1,3.9,4.34-4,40.52,9.79,54.88,9.83,55C124.82,119.94,123,122.78,120.8,123.51Z"/></svg>