<?xml version="1.0" encoding="iso-8859-1"?>
<!-- Generator: Adobe Illustrator 19.2.1, SVG Export Plug-In . SVG Version: 6.00 Build 0)  -->
<svg version="1.1" id="Layer_1" xmlns="http://www.w3.org/2000/svg" xmlns:xlink="http://www.w3.org/1999/xlink" x="0px" y="0px"
	 viewBox="0 0 149.713 81.24" style="enable-background:new 0 0 149.713 81.24;" xml:space="preserve">
<g>
	<g>
		<path style="fill:#FFFFFF;" d="M36.689,46.211h-7.998V25.708H8.03v20.503H0V0h8.03v19.233h20.662V0h7.998V46.211z"/>
		<path style="fill:#FFFFFF;" d="M43.989,28.723c0-3.363,0.666-6.395,1.999-9.093c1.333-2.697,3.206-4.771,5.618-6.221
			c2.412-1.449,5.184-2.174,8.314-2.174c4.635,0,8.396,1.491,11.283,4.476c2.889,2.982,4.448,6.939,4.682,11.869l0.031,1.81
			c0,3.386-0.65,6.411-1.951,9.077c-1.302,2.666-3.164,4.729-5.586,6.189c-2.423,1.459-5.221,2.189-8.395,2.189
			c-4.846,0-8.724-1.613-11.633-4.84s-4.363-7.527-4.363-12.902V28.723z M51.701,29.39c0,3.534,0.729,6.3,2.19,8.3
			c1.459,1.999,3.49,2.999,6.094,2.999c2.602,0,4.628-1.016,6.077-3.047s2.175-5.004,2.175-8.919c0-3.47-0.746-6.221-2.238-8.252
			c-1.491-2.031-3.518-3.047-6.078-3.047c-2.518,0-4.518,1-5.998,3C52.441,22.423,51.701,25.412,51.701,29.39z"/>
		<path style="fill:#FFFFFF;" d="M112.513,29.39c0,5.312-1.206,9.548-3.618,12.711c-2.412,3.164-5.649,4.745-9.712,4.745
			c-3.767,0-6.781-1.238-9.045-3.713v16.281h-7.713V11.87h7.109l0.317,3.491c2.264-2.75,5.343-4.126,9.235-4.126
			c4.189,0,7.475,1.561,9.855,4.682c2.38,3.121,3.57,7.453,3.57,12.997V29.39z M104.832,28.723c0-3.428-0.683-6.146-2.047-8.156
			c-1.365-2.01-3.317-3.016-5.856-3.016c-3.152,0-5.416,1.302-6.791,3.904v15.234c1.396,2.666,3.682,3.999,6.855,3.999
			c2.454,0,4.374-0.989,5.76-2.968C104.139,35.743,104.832,32.743,104.832,28.723z"/>
		<path style="fill:#FFFFFF;" d="M134.157,46.846c-4.887,0-8.85-1.539-11.886-4.618c-3.036-3.078-4.554-7.178-4.554-12.298v-0.953
			c0-3.428,0.66-6.49,1.983-9.188c1.322-2.698,3.179-4.798,5.569-6.301c2.392-1.502,5.058-2.253,7.998-2.253
			c4.677,0,8.289,1.491,10.839,4.476c2.55,2.982,3.825,7.204,3.825,12.663v3.11h-22.439c0.232,2.836,1.18,5.078,2.841,6.729
			c1.66,1.65,3.75,2.476,6.269,2.476c3.533,0,6.41-1.429,8.633-4.284l4.157,3.967c-1.376,2.053-3.211,3.645-5.507,4.776
			S137.015,46.846,134.157,46.846z M133.237,17.424c-2.116,0-3.824,0.741-5.126,2.223c-1.301,1.48-2.132,3.544-2.491,6.188h14.695
			v-0.571c-0.17-2.581-0.857-4.533-2.063-5.855S135.374,17.424,133.237,17.424z"/>
	</g>
	<g>
		<path style="fill:#FFFFFF;" d="M3.78,80.986V68.494H1.507V67.25H3.78v-1.663c0-1.405,0.357-2.484,1.073-3.237
			s1.712-1.13,2.99-1.13c0.576,0,1.113,0.071,1.612,0.214L9.34,62.692c-0.423-0.102-0.884-0.152-1.384-0.152
			c-0.838,0-1.49,0.261-1.955,0.783c-0.465,0.521-0.698,1.262-0.698,2.221v1.706h3.275v1.244H5.303v12.492H3.78z"/>
		<path style="fill:#FFFFFF;" d="M10.458,73.915c0-1.32,0.256-2.51,0.768-3.567s1.236-1.881,2.171-2.469
			c0.935-0.589,1.995-0.883,3.18-0.883c1.828,0,3.309,0.641,4.443,1.924c1.134,1.281,1.701,2.98,1.701,5.097v0.317
			c0,1.329-0.256,2.524-0.768,3.586c-0.512,1.062-1.233,1.882-2.165,2.457s-1.993,0.863-3.187,0.863
			c-1.82,0-3.299-0.641-4.437-1.924c-1.138-1.281-1.708-2.98-1.708-5.097V73.915z M11.981,74.334c0,1.642,0.425,2.99,1.276,4.043
			c0.851,1.055,1.966,1.581,3.345,1.581c1.371,0,2.482-0.526,3.333-1.581c0.851-1.053,1.276-2.443,1.276-4.17v-0.292
			c0-1.05-0.195-2.01-0.584-2.882s-0.935-1.547-1.638-2.025c-0.703-0.478-1.506-0.717-2.412-0.717c-1.354,0-2.458,0.531-3.313,1.594
			c-0.855,1.062-1.282,2.452-1.282,4.17V74.334z"/>
		<path style="fill:#FFFFFF;" d="M32.205,68.545c-0.322-0.06-0.665-0.089-1.028-0.089c-0.948,0-1.75,0.265-2.406,0.794
			c-0.656,0.528-1.124,1.297-1.403,2.304v9.433h-1.511V67.25h1.485l0.025,2.184c0.804-1.625,2.095-2.438,3.872-2.438
			c0.423,0,0.757,0.055,1.003,0.165L32.205,68.545z"/>
		<path style="fill:#FFFFFF;" d="M43.288,63.733v3.517h2.844v1.244h-2.844v9.163c0,0.763,0.138,1.331,0.412,1.703
			c0.275,0.373,0.734,0.56,1.378,0.56c0.254,0,0.664-0.042,1.231-0.127l0.063,1.233c-0.397,0.143-0.939,0.214-1.625,0.214
			c-1.041,0-1.799-0.303-2.272-0.908c-0.474-0.604-0.711-1.495-0.711-2.672v-9.166h-2.526V67.25h2.526v-3.517H43.288z"/>
		<path style="fill:#FFFFFF;" d="M48.188,73.915c0-1.32,0.256-2.51,0.768-3.567c0.513-1.058,1.236-1.881,2.172-2.469
			c0.935-0.589,1.995-0.883,3.18-0.883c1.828,0,3.31,0.641,4.443,1.924c1.134,1.281,1.701,2.98,1.701,5.097v0.317
			c0,1.329-0.256,2.524-0.768,3.586c-0.513,1.062-1.234,1.882-2.165,2.457s-1.993,0.863-3.187,0.863
			c-1.819,0-3.299-0.641-4.438-1.924c-1.138-1.281-1.707-2.98-1.707-5.097V73.915z M49.712,74.334c0,1.642,0.426,2.99,1.275,4.043
			c0.852,1.055,1.966,1.581,3.346,1.581c1.371,0,2.482-0.526,3.332-1.581c0.852-1.053,1.276-2.443,1.276-4.17v-0.292
			c0-1.05-0.194-2.01-0.584-2.882s-0.936-1.547-1.638-2.025c-0.702-0.478-1.507-0.717-2.412-0.717c-1.354,0-2.459,0.531-3.313,1.594
			c-0.854,1.062-1.282,2.452-1.282,4.17V74.334z"/>
		<path style="fill:#FFFFFF;" d="M64.971,67.25l0.051,2.234c0.508-0.829,1.143-1.451,1.904-1.866s1.608-0.622,2.539-0.622
			c2.167,0,3.542,0.889,4.126,2.666c0.491-0.854,1.146-1.513,1.968-1.975c0.821-0.461,1.727-0.691,2.717-0.691
			c2.945,0,4.447,1.608,4.507,4.824v9.166h-1.523v-9.052c-0.009-1.228-0.273-2.137-0.793-2.729
			c-0.521-0.593-1.369-0.889-2.546-0.889c-1.092,0.017-2.015,0.37-2.768,1.061c-0.753,0.689-1.172,1.529-1.257,2.52v9.09h-1.523
			V71.82c-0.009-1.177-0.285-2.055-0.832-2.635c-0.545-0.579-1.386-0.869-2.52-0.869c-0.956,0-1.777,0.273-2.463,0.818
			c-0.686,0.547-1.193,1.356-1.523,2.432v9.42h-1.523V67.25H64.971z"/>
		<path style="fill:#FFFFFF;" d="M85.792,73.915c0-1.32,0.256-2.51,0.768-3.567c0.513-1.058,1.236-1.881,2.172-2.469
			c0.935-0.589,1.995-0.883,3.18-0.883c1.828,0,3.31,0.641,4.443,1.924c1.134,1.281,1.701,2.98,1.701,5.097v0.317
			c0,1.329-0.256,2.524-0.768,3.586c-0.513,1.062-1.234,1.882-2.165,2.457s-1.993,0.863-3.187,0.863
			c-1.819,0-3.299-0.641-4.438-1.924c-1.138-1.281-1.707-2.98-1.707-5.097V73.915z M87.315,74.334c0,1.642,0.426,2.99,1.275,4.043
			c0.852,1.055,1.966,1.581,3.346,1.581c1.371,0,2.482-0.526,3.332-1.581c0.852-1.053,1.276-2.443,1.276-4.17v-0.292
			c0-1.05-0.194-2.01-0.584-2.882s-0.936-1.547-1.638-2.025c-0.702-0.478-1.507-0.717-2.412-0.717c-1.354,0-2.459,0.531-3.313,1.594
			c-0.854,1.062-1.282,2.452-1.282,4.17V74.334z"/>
		<path style="fill:#FFFFFF;" d="M107.538,68.545c-0.321-0.06-0.664-0.089-1.028-0.089c-0.948,0-1.75,0.265-2.405,0.794
			c-0.656,0.528-1.124,1.297-1.403,2.304v9.433h-1.511V67.25h1.485l0.025,2.184c0.804-1.625,2.095-2.438,3.872-2.438
			c0.423,0,0.758,0.055,1.003,0.165L107.538,68.545z"/>
		<path style="fill:#FFFFFF;" d="M116.286,68.545c-0.321-0.06-0.664-0.089-1.028-0.089c-0.948,0-1.75,0.265-2.405,0.794
			c-0.656,0.528-1.124,1.297-1.403,2.304v9.433h-1.511V67.25h1.485l0.025,2.184c0.804-1.625,2.095-2.438,3.872-2.438
			c0.423,0,0.758,0.055,1.003,0.165L116.286,68.545z"/>
		<path style="fill:#FFFFFF;" d="M117.593,73.915c0-1.32,0.256-2.51,0.768-3.567c0.513-1.058,1.236-1.881,2.172-2.469
			c0.935-0.589,1.995-0.883,3.18-0.883c1.828,0,3.31,0.641,4.443,1.924c1.134,1.281,1.701,2.98,1.701,5.097v0.317
			c0,1.329-0.256,2.524-0.768,3.586c-0.513,1.062-1.234,1.882-2.165,2.457s-1.993,0.863-3.187,0.863
			c-1.819,0-3.299-0.641-4.438-1.924c-1.138-1.281-1.707-2.98-1.707-5.097V73.915z M119.116,74.334c0,1.642,0.426,2.99,1.275,4.043
			c0.852,1.055,1.966,1.581,3.346,1.581c1.371,0,2.482-0.526,3.332-1.581c0.852-1.053,1.276-2.443,1.276-4.17v-0.292
			c0-1.05-0.194-2.01-0.584-2.882s-0.936-1.547-1.638-2.025c-0.702-0.478-1.507-0.717-2.412-0.717c-1.354,0-2.459,0.531-3.313,1.594
			c-0.854,1.062-1.282,2.452-1.282,4.17V74.334z"/>
		<path style="fill:#FFFFFF;" d="M136.281,77.825l0.229,1.181l0.305-1.244l3.301-10.512h1.295l3.263,10.423l0.355,1.447l0.292-1.333
			l2.818-10.537h1.574l-3.999,13.736h-1.295l-3.529-10.893l-0.165-0.749l-0.165,0.762l-3.466,10.88h-1.295l-3.986-13.736h1.562
			L136.281,77.825z"/>
	</g>
</g>
</svg>
