<?xml version="1.0" encoding="iso-8859-1"?>
<!-- Generator: Adobe Illustrator 19.2.1, SVG Export Plug-In . SVG Version: 6.00 Build 0)  -->
<svg version="1.1" id="Layer_1" xmlns="http://www.w3.org/2000/svg" xmlns:xlink="http://www.w3.org/1999/xlink" x="0px" y="0px"
	 viewBox="0 0 435.099 197.351" style="enable-background:new 0 0 435.099 197.351;" xml:space="preserve">
<g>
	<g>
		<path style="fill:#FFFFFF;" d="M288.946,104.143c-4.386,5.334-8.012,11.628-13.302,15.822
			c-15.343,12.164-30.12,6.926-40.805-5.666c-2.803-3.303-2.547-9.202-3.783-14.264c-6.808,3.274-13.723,6.601-17.299,15.07
			c-8.409,19.916-17.007,39.766-30.21,57.236c-8.236,10.897-17.643,19.983-31.081,23.81c-3.249,0.925-7.014,1.623-10.196,0.902
			c-9.053-2.052-13.038-12.212-7.013-19.545c9.052-11.017,18.814-21.542,29.069-31.453c9.203-8.894,19.54-16.608,29.235-25.006
			c2.015-1.745,3.409-4.207,5.089-6.339c-0.348-0.464-0.696-0.929-1.044-1.393c-2.85,1.405-5.608,3.055-8.572,4.152
			c-3.694,1.367-7.499,2.897-11.359,3.256c-8.443,0.786-12.592-2.856-13.846-11.364c-0.355-2.408-0.315-4.874-0.507-8.201
			c-7.812,5.655-16.129,8.897-20.862,17.79c-9.448,17.755-19.184,35.401-33.212,50.269c-10.127,10.733-22.114,18.605-35.014,25.344
			c-1.458,0.762-3.089,1.284-4.701,1.643c-5.952,1.325-10.919-0.651-14.724-5.184c-3.573-4.257-2.89-9.216-0.52-13.595
			c1.688-3.119,4.181-6.128,7.016-8.248c21.603-16.153,43.449-31.982,65.016-48.182c2.901-2.179,4.665-5.87,6.955-8.861
			c-0.426-0.414-0.851-0.827-1.277-1.241c-3.716,1.669-7.352,3.561-11.171,4.947c-4.194,1.522-8.485,3.109-12.865,3.711
			c-6.348,0.873-9.597-1.99-9.587-8.34c0.006-3.898,0.626-8.016,1.998-11.648c3.405-9.016,7.305-17.852,11.257-26.647
			c0.597-1.329,2.407-2.588,3.886-2.957c4.295-1.071,8.707-1.673,14.403-2.699c-1.565,3.1-2.619,4.915-3.425,6.834
			c-4.306,10.254-8.785,20.445-12.712,30.843c-1.808,4.786-0.004,6.469,5.102,5.752c10.853-1.524,19.064-6.418,22.765-17.439
			c1.904-5.669,4.681-11.056,6.406-16.77c1.338-4.432,3.902-6.632,8.245-7.437c2.732-0.507,5.396-1.381,9.722-2.52
			c-5.167,14.25-11.771,26.556-16.619,39.703c7.214-4.796,15.224-7.995,19.449-16.696c6.465-13.313,17.59-20.565,32.707-20.781
			c9.643-0.138,19.29-0.026,30.015-0.026c-4.159,11.681-8.02,22.526-12.226,34.339c7.405-3.141,14.263-5.423,17.812-12.527
			c4.862-9.734,12.941-15.833,22.516-20.365c5.197-2.46,10.117-2.684,15.169,0.475c3.834,2.397,7.92,4.393,11.894,6.567
			c-0.112,0.562-0.224,1.125-0.336,1.687c-1.246,0.557-2.447,1.264-3.745,1.646c-5.247,1.544-10.543,2.924-15.786,4.481
			c-9.497,2.822-14.972,10.193-19.765,18.097c-2.536,4.183-3.371,8.918,0.086,13.095c3.528,4.261,8.237,4.427,13.242,2.936
			c8.991-2.677,14.544-11.395,12.979-20.832c-0.227-1.366-1.067-2.897-2.102-3.812c-2.936-2.596-2.294-4.809,0.252-7.069
			c3.863-3.427,8.155-6.141,13.505-4.579c3.622,1.058,5.942,7.736,5.205,13.591c-0.331,2.628-0.962,5.218-1.457,7.825
			C288.819,104.287,288.946,104.143,288.946,104.143z M125.654,126.762c-0.395-0.335-0.789-0.67-1.184-1.005
			c-18.616,13.593-37.688,26.653-53.872,43.257c-3.045,3.124-4.527,7.996-6.058,12.3c-1.31,3.684-0.282,7.291,3.159,9.711
			c3.595,2.528,7.481,2.414,10.588-0.403c5.882-5.333,12.272-10.451,16.841-16.814c9.971-13.888,18.943-28.494,28.29-42.828
			C124.284,129.653,124.915,128.172,125.654,126.762z M194.131,128.227c-0.577-0.434-1.155-0.868-1.732-1.303
			c-13.606,10.034-28.143,19.126-38.499,32.8c-4.514,5.96-7.395,13.281-10.318,20.276c-1.702,4.073,1.408,10.311,5.166,12.554
			c4.197,2.505,7.502,0.131,10.259-2.488c3.345-3.178,6.96-6.49,9.068-10.479C177.04,162.615,185.492,145.371,194.131,128.227z
			 M214.494,75.495c-0.306-0.547-0.612-1.095-0.918-1.642c-4.929,1.397-10.562,1.723-14.649,4.404
			c-10.099,6.627-15.324,17.2-19.359,28.239c-1.419,3.882,1.712,7.177,5.69,6.076c8.64-2.391,16.645-5.548,19.824-15.375
			c1.725-5.331,4.563-10.299,6.854-15.451C212.85,79.689,213.645,77.58,214.494,75.495z"/>
		<path style="fill:#FFFFFF;" d="M22.578,99.246c-2.194,4.546-4.18,8.534-6.051,12.576c-1.743,3.766-4.779,4.699-7.569,2.081
			c-3.427-3.216-6.461-7.081-8.726-11.184c-0.805-1.458,0.643-4.765,1.906-6.669c16.191-24.405,32.538-48.707,48.834-73.043
			c0.987-1.474,1.878-3.013,2.814-4.522c-0.25-0.375-0.5-0.75-0.75-1.125c-8.063,3.197-16.127,6.395-24.19,9.592
			c-0.35-0.292-0.701-0.585-1.051-0.877c1.942-2.136,3.605-4.645,5.874-6.346C45.349,10.973,59.043,6.66,72.896,3.08
			C79.9,1.27,87.242,0.533,94.482,0.011c2.196-0.158,5.455,1.414,6.696,3.236c5.883,8.639,11.347,17.572,16.722,26.543
			c2.039,3.403,0.551,6.745-2.248,8.899c-7.086,5.453-14.334,10.711-21.72,15.749c-3.535,2.411-7.531,4.145-10.884,5.952
			c4.365,4.687,8.577,9.185,12.761,13.71c4.605,4.98,4.678,10.8,1.652,16.216c-8,14.32-19.659,24.308-36.183,27.336
			c-14.573,2.67-25.065-5.379-35.017-14.353C25.069,102.223,24.085,100.917,22.578,99.246z M53.327,101.339
			c14.118-0.927,24.996-7.891,33.634-18.704c2.553-3.196,2.932-6.933,0.687-10.707c-2.343-3.939-5.958-6.3-10.275-5.835
			c-12.032,1.299-24.004,3.166-35.985,4.909c-0.62,0.09-1.22,1.049-1.629,1.725c-2.578,4.257-5.283,8.456-7.525,12.887
			c-0.647,1.279-0.539,3.751,0.304,4.84C37.73,97.17,44.17,101.825,53.327,101.339z M69.934,14.093
			c-0.709,3.483-0.649,6.244-1.805,8.333c-5.061,9.146-10.461,18.105-15.773,27.111c-1.105,1.873-2.362,3.655-4.293,6.624
			c4.296-1.442,7.1-2.36,9.888-3.323c15.575-5.383,30.711-11.707,44.412-21.033c3.564-2.426,6.56-5.447,5.722-10.232
			c-0.888-5.071-5.005-6.73-9.37-7.701C88.83,11.674,78.978,12.334,69.934,14.093z"/>
		<path style="fill:#FFFFFF;" d="M288.819,104.287c2.988-6.801,6.143-13.535,8.918-20.422c2.774-6.887,7.398-11.264,14.815-12.629
			c3.246-0.598,6.326-1.233,7.724,3.465c3.59-1.695,6.756-3.073,9.813-4.659c5.609-2.909,13.232-1.136,16.073,4.461
			c0.927,1.826,0.557,4.963-0.37,6.97c-4.949,10.716-10.307,21.242-15.403,31.891c-0.852,1.78-1.111,3.843-1.723,6.062
			c7.484-0.388,16.536-7.941,17.6-14.227c2.466-14.565,11.491-24.392,23.16-32.28c1.235-0.835,3.204-1.118,4.727-0.905
			c7.622,1.063,14.08,4.433,17.745,11.395c1.14,2.166,1.344,5.764,0.336,7.951c-3.449,7.48-9.134,12.93-16.94,16.125
			c-6.192,2.535-11.346,0.158-16.81-3.139c-2.865,3.598-4.093,7.397-2.072,11.527c2.094,4.279,6.175,5.093,10.279,3.877
			c4.097-1.214,8.334-2.69,11.837-5.05c15.021-10.121,28.409-22.118,38.837-37.034c2.785-3.984,5.339-4.856,9.394-2.499
			c2.132,1.239,4.437,2.179,7.246,3.534c-4.614,8.677-2.855,17.043,0.142,25.615c2.74,7.839-0.668,17.111-7.13,21.836
			c-7.025,5.137-17.121,5.546-24.48,0.993c-5.847-3.618-9.158-8.18-12.469-17.513c-2.472,1.794-4.721,3.648-7.179,5.163
			c-4.789,2.953-9.41,6.496-14.612,8.392c-9.986,3.64-16.019,0.579-21.775-10.227c-2.818,2.404-5.374,4.921-8.271,6.954
			c-2.531,1.776-5.298,3.716-8.223,4.324c-5.298,1.101-10.485-0.327-14.063-4.545c-3.349-3.948-1.965-8.435,0.101-12.659
			c3.581-7.323,7.156-14.648,10.684-21.996c0.981-2.043,1.79-4.17,2.698-6.303c-5.821-1.771-12.279,2.216-15.267,9.23
			c-3.975,9.329-7.804,18.721-11.618,28.118c-2.2,5.42-8.63,9.34-14.334,8.569c-4.001-0.541-5.368-2.731-4.056-6.588
			c1.584-4.656,3.21-9.298,4.806-13.932C288.946,104.143,288.819,104.287,288.819,104.287z M400.368,103.319
			c4.531,3.93,4.501,3.927,3.769,12.131c-0.08,0.892,0.203,2.467,0.708,2.65c2.534,0.92,5.522,2.539,7.721,1.863
			c2.042-0.627,4.737-3.911,4.636-5.898c-0.435-8.609-1.789-17.171-2.8-25.675C409.775,93.313,405.149,98.233,400.368,103.319z
			 M359.885,100.659c4.027,2.951,7.297,2.707,10.403,0.373c3.575-2.688,7.325-5.25,10.422-8.43c1.982-2.035,3.37-4.951,4.21-7.72
			c1.024-3.372-1.458-5.684-4.401-4.043C372.048,85.559,365.068,91.983,359.885,100.659z"/>
	</g>
</g>
</svg>
